# xmcd
#
# Track frame offsets:
#	150
#	18524
#	33811
#	56806
#	73413
#	91013
#	106748
#	122965
#	142004
#	158852
#	175338
#	193184
#	210771
#
# Disc length: 2973 seconds
#
# Revision: 2
# Processed by: cddbd v1.4PL0 Copyright (c) Steve Scherf et al.
# Submitted via: audiograbber 1.82.01
#
DISCID=b40b9b0d
DTITLE=Various Artist - Today's Country Hits - Disc 1
DYEAR=2002
DGENRE=Country
TTITLE0=Alan Jackson - Drive
TTITLE1=Brooks and Dunn - Ain't Nothing 'Bout You
TTITLE2=Clay Walker - Chain Of Love
TTITLE3=Diamond Rio - One More Day
TTITLE4=Dixie Chicks - Ready To Run
TTITLE5=George Strait - Bab's Gotten
TTITLE6=Joe Diffie - Night To Remember
TTITLE7=Keith Urban - Your Everything
TTITLE8=Montgomery Gentry - She Couldn't Change Me
TTITLE9=Sawyer Brown - Drive Me Wild
TTITLE10=Tim Mcgraw - Grown Men Don't Cry
TTITLE11=Ty Herndon - Living In A Moment
TTITLE12=Yankee Gray - All Things Considered
EXTD=
EXTT0=
EXTT1=
EXTT2=
EXTT3=
EXTT4=
EXTT5=
EXTT6=
EXTT7=
EXTT8=
EXTT9=
EXTT10=
EXTT11=
EXTT12=
PLAYORDER=
